<svg width="48" height="42" viewBox="0 0 48 42" fill="none" xmlns="http://www.w3.org/2000/svg">
    <path fill-rule="evenodd" clip-rule="evenodd"
        d="M41.4306 12.9402L47.4588 16.0373C47.7889 16.2074 47.9979 16.5447 48 16.9151C48.0019 17.2854 47.7988 17.6257 47.4706 17.8006L32.4707 25.7638C32.3242 25.8416 32.1621 25.8805 32 25.8805C31.8418 25.8805 31.6856 25.8436 31.541 25.7697L24 21.8957L16.4591 25.7697C16.3145 25.8436 16.1583 25.8805 16.0001 25.8805C15.838 25.8805 15.6759 25.8416 15.5293 25.7638L0.529418 17.8006C0.201294 17.6257 -0.00186081 17.2854 0.00010793 16.9151C0.00207667 16.5448 0.211044 16.2074 0.541136 16.0373L6.56923 12.9403L0.541043 9.84329C0.210951 9.67317 0.00198292 9.33582 1.41806e-05 8.96549C-0.00195456 8.59517 0.201201 8.25493 0.529324 8.07997L15.5292 0.116765C15.8164 -0.0368629 16.166 -0.0388193 16.459 0.110895L24 3.98494L31.5409 0.110802C31.8339 -0.0388193 32.1796 -0.036956 32.4706 0.116672L47.4706 8.07988C47.7987 8.25484 48.0018 8.59507 47.9999 8.9654C47.9979 9.33573 47.7889 9.67308 47.4588 9.84319L41.4306 12.9402ZM10.9308 12.9403L24 19.6548L37.0691 12.9402L24 6.22582L10.9308 12.9403Z"
        fill="#C6CDD7" />
    <path
        d="M22.5195 25.4323C22.2246 25.2525 21.8515 25.2399 21.5409 25.3983L17.3749 27.5389C16.5175 27.9802 15.4433 27.9725 14.5878 27.5194L9.47068 24.8025C9.16206 24.6391 8.78903 24.647 8.48631 24.8277C8.1836 25.0075 7.99994 25.3313 7.99994 25.6812V34.1028C7.99994 34.4703 8.2031 34.8086 8.52925 34.9816L21.5292 41.8833C21.6757 41.9611 21.8378 41.9999 21.9999 41.9999C22.1777 41.9999 22.3554 41.9523 22.5136 41.858C22.8163 41.6782 23 41.3545 23 41.0045V26.2829C23 25.9359 22.8184 25.6132 22.5195 25.4323Z"
        fill="#C6CDD7" />
    <path
        d="M38.5292 24.8025C38.8358 24.6391 39.2108 24.6469 39.5136 24.8277C39.8164 25.0076 39.9999 25.3313 39.9999 25.6813V34.1029C39.9999 34.4704 39.7968 34.8087 39.4706 34.9817L26.4708 41.8834C26.3242 41.9612 26.1621 42 26 42C25.8223 42 25.6446 41.9524 25.4864 41.8581C25.1836 41.6783 25 41.3546 25 41.0046V26.2829C25 25.9359 25.1816 25.6132 25.4805 25.4323C25.7754 25.2525 26.1484 25.2389 26.459 25.3983L30.625 27.5389C31.4804 27.9811 32.5566 27.9734 33.4121 27.5194L38.5292 24.8025Z"
        fill="#C6CDD7" />
</svg>
    