<svg width="108" height="29" viewBox="0 0 108 29" fill="none" xmlns="http://www.w3.org/2000/svg">
    <path fill-rule="evenodd" clip-rule="evenodd"
        d="M4.10268 23.2459H2.70726V9.1822L0.684123 9.13322C0.217443 9.13322 0 8.80515 0 8.50055V7.86736H2.70726V6.0816C2.70726 5.17392 2.81957 4.37185 3.04009 3.69734C3.26625 3.00446 3.58882 2.42077 3.99858 1.96209C4.41397 1.49575 4.91706 1.1442 5.49298 0.915627C6.32428 0.586025 7.29405 0.486532 8.35562 0.673783C8.72435 0.739601 9.04385 0.841134 9.30437 0.976853L9.66284 1.16308L9.53258 1.67636C9.43053 1.98505 9.20283 2.15342 8.92846 2.15342C8.7623 2.15342 8.55306 2.10648 8.24741 2.0029C8.11921 1.96005 7.85766 1.90851 7.34277 1.90851C6.87302 1.90851 6.43352 1.98198 6.03658 2.12842C5.65606 2.26924 5.33144 2.49016 5.0463 2.80446C4.7586 3.12028 4.52936 3.54683 4.3632 4.0698C4.18986 4.61267 4.10268 5.28974 4.10268 6.0816V7.86736H9.48745V9.19393H4.10268V23.2459ZM14.9854 23.2459H13.59V7.225H14.1951C14.6239 7.225 14.9233 7.5347 14.9233 7.98012L14.9423 9.68119C15.2577 9.15618 15.6234 8.70157 16.0321 8.32503C16.509 7.88369 17.0608 7.5449 17.6696 7.31837C18.2737 7.09336 18.9578 6.97958 19.703 6.97958C20.2327 6.97958 20.7338 7.03622 21.1933 7.14693C21.6451 7.25663 22.0871 7.41327 22.5066 7.61021L22.9815 7.83267L22.6149 8.53728C22.4959 8.72555 22.3015 8.82709 22.0728 8.82709C21.9446 8.82709 21.8025 8.79035 21.6133 8.7077C21.5092 8.6628 21.3697 8.61177 21.1984 8.55718C21.0333 8.5031 20.821 8.45259 20.5697 8.40463C20.3312 8.35973 20.0389 8.33677 19.703 8.33677C18.4963 8.33677 17.5516 8.71535 16.8142 9.49292C16.0552 10.296 15.4393 11.4598 14.9854 12.9527V23.2459ZM32.3657 8.30605C31.4103 8.30605 30.5708 8.47238 29.8687 8.80147C29.1707 9.12801 28.5794 9.5918 28.1138 10.1786C27.6399 10.7755 27.2773 11.5067 27.0348 12.3521C26.7876 13.2159 26.6625 14.1853 26.6625 15.2348C26.6625 16.2843 26.7876 17.2517 27.0348 18.1099C27.2763 18.9487 27.6389 19.6712 28.1117 20.2574C28.5764 20.8355 29.1666 21.2916 29.8656 21.6146C30.5677 21.9386 31.4093 22.1029 32.3657 22.1029C33.3124 22.1029 34.1504 21.9386 34.8576 21.6136C35.5617 21.2916 36.154 20.8355 36.6186 20.2584C37.0925 19.6702 37.454 18.9477 37.6956 18.1099C37.9428 17.2527 38.0679 16.2864 38.0679 15.2348C38.0679 14.1838 37.9428 13.2138 37.6956 12.3521C37.454 11.5077 37.0904 10.7765 36.6166 10.1786C36.1509 9.5918 35.5591 9.12801 34.8555 8.80249C34.1488 8.4734 33.3103 8.30605 32.3657 8.30605ZM32.3657 23.4295C31.2308 23.4295 30.2113 23.232 29.3328 22.8412C28.4481 22.4488 27.6922 21.8789 27.085 21.1472C26.485 20.4238 26.0265 19.5477 25.7209 18.5441C25.4204 17.5579 25.2681 16.4446 25.2681 15.2348C25.2681 14.0271 25.4204 12.9087 25.7199 11.9123C26.0255 10.898 26.484 10.0173 27.085 9.29281C27.6902 8.5632 28.4451 7.98818 29.3277 7.58562C30.2072 7.18408 31.2298 6.97948 32.3657 6.97948C33.4893 6.97948 34.5083 7.18306 35.3935 7.5846C36.2822 7.98818 37.0392 8.5632 37.6453 9.29281C38.2453 10.0163 38.7048 10.8969 39.0105 11.9123C39.311 12.9108 39.4633 14.0282 39.4633 15.2348C39.4633 16.4425 39.311 17.5558 39.0105 18.5441C38.7038 19.5487 38.2453 20.4248 37.6464 21.1472C37.0381 21.8789 36.2791 22.4488 35.3889 22.8422C34.5052 23.232 33.4878 23.4295 32.3657 23.4295ZM49.4425 8.30605C48.7784 8.30605 48.1753 8.4035 47.6507 8.59585C47.1358 8.78515 46.6943 9.05454 46.3363 9.39639C45.9809 9.73722 45.7035 10.1525 45.5111 10.6332C45.3158 11.1214 45.2168 11.6704 45.2168 12.2664C45.2168 12.8613 45.3158 13.4103 45.5111 13.8986C45.7035 14.3787 45.9819 14.7955 46.3363 15.1353C46.6943 15.4772 47.1358 15.7461 47.6507 15.9354C48.1753 16.1277 48.7784 16.2252 49.4425 16.2252C50.1277 16.2252 50.7405 16.1277 51.2657 15.9354C51.7785 15.7471 52.218 15.4792 52.5698 15.1374C52.9201 14.7986 53.1924 14.3828 53.3811 13.9026C53.5714 13.4144 53.6683 12.8633 53.6683 12.2664C53.6683 11.6704 53.5693 11.1214 53.3739 10.6332C53.1816 10.1525 52.9042 9.73722 52.5488 9.39537C52.1918 9.05454 51.7493 8.78515 51.2344 8.59585C50.7098 8.4035 50.1067 8.30605 49.4425 8.30605ZM47.0886 21.4411C46.6799 21.5947 46.2973 21.7682 45.9517 21.9575C45.586 22.1575 45.2716 22.3901 45.0163 22.6488C44.767 22.9009 44.5706 23.182 44.4316 23.483C44.2973 23.7749 44.2321 24.0907 44.2321 24.4499C44.2321 24.879 44.3444 25.2698 44.5737 25.6464C44.8101 26.0352 45.1547 26.3801 45.5963 26.6729C46.0542 26.977 46.6271 27.2219 47.2979 27.4015C47.981 27.5816 48.7646 27.6745 49.6277 27.6745C50.3872 27.6745 51.1262 27.575 51.8272 27.3796C52.5216 27.1862 53.1416 26.9143 53.6714 26.5714C54.1822 26.2382 54.596 25.8377 54.8986 25.3795C55.1889 24.9392 55.3299 24.4657 55.3299 23.9295C55.3299 23.482 55.2268 23.1305 55.0237 22.883C54.7945 22.606 54.4919 22.3937 54.0981 22.2366C53.6683 22.0651 53.1698 21.9452 52.6139 21.8799C52.0195 21.81 51.3939 21.757 50.7539 21.7212C50.0974 21.6866 49.4477 21.6534 48.8035 21.6228C48.1907 21.5937 47.6148 21.532 47.0886 21.4411ZM49.6277 29.0011C48.5702 29.0011 47.6184 28.8873 46.7984 28.6612C45.9671 28.4327 45.2517 28.1148 44.6737 27.7163C44.0767 27.3046 43.6172 26.8143 43.3085 26.2576C42.9962 25.6943 42.8377 25.0856 42.8377 24.4499C42.8377 23.4621 43.1793 22.6004 43.8537 21.8886C44.247 21.4733 44.727 21.1136 45.2865 20.8146C45.1368 20.7197 44.9993 20.6161 44.8742 20.5023C44.4214 20.0931 44.1911 19.5151 44.1911 18.7865C44.1911 18.5206 44.247 18.2426 44.3562 17.9594C44.4583 17.6982 44.5998 17.4369 44.7757 17.1859C44.9532 16.9328 45.1686 16.6925 45.4142 16.4716C45.4742 16.4175 45.5363 16.365 45.5993 16.3139C45.1255 15.9257 44.7378 15.4552 44.4444 14.9098C44.0316 14.1455 43.8224 13.2557 43.8224 12.2664C43.8224 11.5 43.9537 10.7842 44.2121 10.1398C44.4752 9.4867 44.8609 8.91882 45.3599 8.45044C45.8527 7.98818 46.4517 7.62236 47.1389 7.36419C47.8199 7.10908 48.5953 6.97948 49.4425 6.97948C50.1595 6.97948 50.8246 7.0754 51.4205 7.26367C51.9606 7.43511 52.4554 7.6693 52.8939 7.9591H56.9099V8.53106C56.9099 8.74841 56.8135 8.94485 56.6392 9.08311C56.4992 9.19485 56.3289 9.25557 56.1504 9.25557L54.2191 9.29434C54.3924 9.55558 54.5406 9.83263 54.6632 10.1265C54.9283 10.7684 55.0637 11.4878 55.0637 12.2664C55.0637 13.0434 54.9283 13.7649 54.6642 14.4098C54.3955 15.0624 54.0068 15.6297 53.5103 16.0961C53.0165 16.5594 52.4165 16.9231 51.7282 17.1762C51.0482 17.4252 50.28 17.5517 49.4425 17.5517C48.4728 17.5517 47.5953 17.3834 46.8271 17.0527C46.683 17.1451 46.5476 17.2451 46.4224 17.3522C46.2363 17.5109 46.0763 17.6793 45.946 17.8528C45.8188 18.0201 45.7183 18.1926 45.6486 18.365C45.587 18.5176 45.5552 18.6589 45.5552 18.7865C45.5552 19.1431 45.6522 19.3992 45.8527 19.5686C46.1091 19.788 46.4635 19.9554 46.9076 20.0681C47.3953 20.1916 47.963 20.2712 48.5933 20.3054C49.2584 20.3411 49.9384 20.3738 50.6344 20.4039C51.3446 20.4355 52.0436 20.4875 52.7139 20.5605C53.4221 20.636 54.0683 20.7886 54.634 21.0146C55.235 21.2549 55.7278 21.6034 56.0991 22.0498C56.494 22.5264 56.6945 23.158 56.6945 23.9295C56.6945 24.6183 56.514 25.2826 56.1576 25.9035C55.8109 26.5076 55.3201 27.0495 54.697 27.5138C54.0822 27.9704 53.336 28.3373 52.4806 28.6021C51.6293 28.8674 50.6698 29.0011 49.6277 29.0011ZM66.6335 8.30605C65.6781 8.30605 64.8386 8.47238 64.1365 8.80147C63.4385 9.12801 62.8483 9.5918 62.3826 10.1786C61.9087 10.7755 61.5451 11.5067 61.3026 12.3521C61.0564 13.2138 60.9313 14.1843 60.9313 15.2348C60.9313 16.2854 61.0564 17.2527 61.3026 18.1099C61.5441 18.9487 61.9067 19.6712 62.3795 20.2574C62.8452 20.8355 63.4355 21.2916 64.1334 21.6146C64.8355 21.9386 65.6771 22.1029 66.6335 22.1029C67.5802 22.1029 68.4182 21.9386 69.1264 21.6136C69.8295 21.2916 70.4218 20.8355 70.8875 20.2574C71.3603 19.6702 71.7229 18.9477 71.9644 18.1099C72.2106 17.2517 72.3357 16.2843 72.3357 15.2348C72.3357 14.1853 72.2106 13.2159 71.9634 12.3521C71.7218 11.5077 71.3593 10.7765 70.8844 10.1786C70.4187 9.5918 69.8269 9.12801 69.1243 8.80249C68.4166 8.4734 67.5781 8.30605 66.6335 8.30605ZM66.6335 23.4295C65.4996 23.4295 64.4791 23.232 63.6006 22.8412C62.7159 22.4488 61.96 21.8779 61.3528 21.1472C60.7538 20.4248 60.2943 19.5487 59.9887 18.5441C59.6882 17.5579 59.5359 16.4446 59.5359 15.2348C59.5359 14.0271 59.6882 12.9087 59.9877 11.9123C60.2943 10.8969 60.7528 10.0163 61.3528 9.29281C61.958 8.5632 62.7129 7.9892 63.5955 7.58562C64.476 7.18408 65.4976 6.97948 66.6335 6.97948C67.7581 6.97948 68.7771 7.18306 69.6613 7.5846C70.551 7.98818 71.308 8.5632 71.9142 9.29281C72.5131 10.0163 72.9726 10.8969 73.2783 11.9123C73.5788 12.9087 73.7311 14.0271 73.7311 15.2348C73.7311 16.4446 73.5788 17.5579 73.2783 18.5441C72.9716 19.5487 72.5131 20.4248 71.9142 21.1472C71.307 21.8789 70.548 22.4488 69.6567 22.8422C68.7741 23.232 67.7561 23.4295 66.6335 23.4295ZM83.7113 8.30605C83.0462 8.30605 82.4431 8.4035 81.9184 8.59585C81.4036 8.78515 80.962 9.05454 80.6051 9.39537C80.2497 9.73722 79.9712 10.1525 79.7789 10.6332C79.5845 11.1214 79.4855 11.6704 79.4855 12.2664C79.4855 12.8613 79.5845 13.4103 79.7789 13.8986C79.9712 14.3797 80.2497 14.7955 80.6051 15.1353C80.962 15.4772 81.4036 15.7461 81.9184 15.9354C82.4431 16.1277 83.0462 16.2252 83.7113 16.2252C84.3954 16.2252 85.0083 16.1277 85.5334 15.9354C86.0462 15.7471 86.4858 15.4792 86.8386 15.1374C87.1878 14.7986 87.4606 14.3817 87.6489 13.9026C87.8391 13.4133 87.9361 12.8623 87.9361 12.2664C87.9361 11.6715 87.8371 11.1225 87.6417 10.6332C87.4494 10.1525 87.1719 9.73722 86.8165 9.39537C86.4586 9.05352 86.017 8.78413 85.5032 8.59585C84.9775 8.4035 84.3744 8.30605 83.7113 8.30605ZM81.3564 21.4411C80.9487 21.5937 80.5671 21.7682 80.2184 21.9575C79.8548 22.1575 79.5394 22.3901 79.284 22.6488C79.0348 22.9019 78.8383 23.182 78.7004 23.483C78.566 23.7749 78.5009 24.0907 78.5009 24.4499C78.5009 24.879 78.6122 25.2708 78.8414 25.6464C79.0778 26.0341 79.4225 26.3801 79.864 26.6729C80.322 26.977 80.8948 27.2219 81.5656 27.4015C82.2487 27.5816 83.0323 27.6745 83.8954 27.6745C84.6539 27.6745 85.395 27.575 86.096 27.3796C86.7904 27.1852 87.4104 26.9132 87.9381 26.5714C88.4509 26.2382 88.8648 25.8377 89.1674 25.3795C89.4566 24.9392 89.5981 24.4657 89.5981 23.9295C89.5981 23.4759 89.4976 23.1335 89.2915 22.883C89.0622 22.606 88.7597 22.3937 88.3658 22.2366C87.936 22.0651 87.4376 21.9452 86.8817 21.8799C86.2873 21.81 85.6616 21.757 85.0216 21.7212C84.3662 21.6866 83.7154 21.6534 83.0713 21.6228C82.4585 21.5937 81.8825 21.532 81.3564 21.4411ZM83.8954 29.0011C82.838 29.0011 81.8861 28.8873 81.0661 28.6612C80.2348 28.4327 79.5194 28.1148 78.9414 27.7163C78.3445 27.3046 77.885 26.8143 77.5763 26.2576C77.2639 25.6933 77.1055 25.0846 77.1055 24.4499C77.1055 23.4621 77.447 22.6004 78.1224 21.8886C78.5147 21.4733 78.9948 21.1136 79.5548 20.8146C79.4045 20.7197 79.2671 20.6161 79.1419 20.5023C78.6891 20.0931 78.4599 19.5161 78.4599 18.7865C78.4599 18.5196 78.5147 18.2416 78.624 17.9594C78.725 17.7002 78.8666 17.44 79.0425 17.1859C79.2199 16.9349 79.4343 16.6946 79.682 16.4726C79.742 16.4175 79.804 16.365 79.8671 16.3139C79.3932 15.9246 79.0066 15.4552 78.7132 14.9098C78.2994 14.1445 78.0901 13.2547 78.0901 12.2664C78.0901 11.5 78.2214 10.7852 78.4809 10.1398C78.743 9.4867 79.1286 8.91882 79.6286 8.45044C80.1204 7.98818 80.7194 7.62236 81.4066 7.36419C82.0887 7.10908 82.8641 6.97948 83.7113 6.97948C84.4272 6.97948 85.0924 7.0754 85.6893 7.26367C86.2293 7.43511 86.7242 7.6693 87.1627 7.9591H91.1777V8.53106C91.1777 8.74943 91.0813 8.94485 90.9069 9.08311C90.7648 9.19587 90.5956 9.25557 90.4182 9.25557L88.4873 9.29434C88.6612 9.55558 88.8094 9.83365 88.9309 10.1275C89.1961 10.7673 89.3315 11.4868 89.3315 12.2664C89.3315 13.0445 89.1961 13.7659 88.932 14.4108C88.6632 15.0624 88.2755 15.6297 87.7781 16.0971C87.2842 16.5594 86.6852 16.9231 85.996 17.1762C85.316 17.4252 84.5477 17.5517 83.7113 17.5517C82.7415 17.5517 81.8631 17.3834 81.0948 17.0527C80.9507 17.1451 80.8158 17.2456 80.6902 17.3522C80.5051 17.5099 80.3451 17.6783 80.2127 17.8528C80.0866 18.0211 79.9861 18.1936 79.9163 18.365C79.8548 18.5166 79.824 18.6589 79.824 18.7865C79.824 19.262 79.9933 19.461 80.1204 19.5686C80.3769 19.788 80.7312 19.9554 81.1753 20.0681C81.6641 20.1916 82.2308 20.2712 82.861 20.3054C83.5272 20.3411 84.2062 20.3738 84.9021 20.4039C85.6124 20.4355 86.3114 20.4875 86.9817 20.5605C87.6899 20.636 88.3371 20.7886 88.9017 21.0146C89.5038 21.2549 89.9966 21.6034 90.3679 22.0508C90.7618 22.5254 90.9623 23.157 90.9623 23.9295C90.9623 24.6183 90.7818 25.2816 90.4264 25.9035C90.0787 26.5086 89.5869 27.0495 88.9648 27.5138C88.3499 27.9704 87.6048 28.3362 86.7483 28.6021C85.898 28.8674 84.9375 29.0011 83.8954 29.0011ZM100.901 8.30605C99.947 8.30605 99.1064 8.47238 98.4043 8.80147C97.7064 9.12801 97.1161 9.5918 96.6504 10.1786C96.1766 10.7765 95.814 11.5067 95.5714 12.3521C95.3243 13.2169 95.1991 14.1863 95.1991 15.2348C95.1991 16.2833 95.3243 17.2507 95.5714 18.1099C95.813 18.9487 96.1745 19.6712 96.6474 20.2584C97.113 20.8355 97.7033 21.2916 98.4023 21.6146C99.1044 21.9386 99.9449 22.1029 100.901 22.1029C101.848 22.1029 102.687 21.9386 103.395 21.6136C104.098 21.2916 104.691 20.8355 105.155 20.2584C105.628 19.6712 105.991 18.9487 106.232 18.1099C106.479 17.2517 106.605 16.2854 106.605 15.2348C106.605 14.1853 106.478 13.2149 106.231 12.3521C105.99 11.5067 105.627 10.7765 105.153 10.1786C104.688 9.5918 104.096 9.12801 103.392 8.80249C102.684 8.4734 101.847 8.30605 100.901 8.30605ZM100.901 23.4295C99.7675 23.4295 98.7479 23.232 97.8695 22.8412C96.9848 22.4488 96.2289 21.8789 95.6217 21.1472C95.0217 20.4238 94.5622 19.5477 94.2565 18.5441C93.956 17.5558 93.8037 16.4425 93.8037 15.2348C93.8037 14.0282 93.956 12.9108 94.2565 11.9123C94.5622 10.898 95.0207 10.0163 95.6217 9.29281C96.2269 8.5632 96.9817 7.98818 97.8643 7.58562C98.7438 7.18408 99.7654 6.97948 100.901 6.97948C102.026 6.97948 103.045 7.18306 103.93 7.5846C104.818 7.98818 105.576 8.5632 106.182 9.29281C106.783 10.0173 107.242 10.898 107.547 11.9123C107.848 12.9118 108 14.0292 108 15.2348C108 16.4415 107.848 17.5548 107.546 18.5441C107.24 19.5477 106.782 20.4238 106.182 21.1472C105.574 21.8789 104.815 22.4488 103.925 22.8422C103.042 23.232 102.024 23.4295 100.901 23.4295Z"
        fill="#0F7BBE" />
</svg>
    