<svg width="31" height="31" viewBox="0 0 31 31" fill="none" xmlns="http://www.w3.org/2000/svg">
    <path fill-rule="evenodd" clip-rule="evenodd"
        d="M16.9742 24.2409C16.9738 24.2827 16.9738 24.2827 16.9736 24.3274C16.9717 24.4098 16.9682 24.4912 16.9623 24.6005C16.9595 24.6577 16.9556 24.7097 16.9481 24.7976C16.9415 24.8711 16.9415 24.8711 16.9344 24.9424C16.9297 24.9894 16.9297 24.9894 16.9248 25.0394C16.9144 25.1291 16.9065 25.1903 16.8973 25.2489C16.8285 25.7373 16.7136 26.2148 16.5527 26.6816C16.1081 27.9704 15.3407 29.1229 14.3148 30.0287L14.1513 30.1738L14.0302 30.2197H7.75825C7.70007 30.2197 7.64526 30.2231 7.5916 30.2302L7.04099 30.3026L8.6357 28.7822L8.76151 28.7319H13.517C14.0761 28.194 14.5291 27.5624 14.8576 26.8656C14.9245 26.7228 14.9828 26.5858 15.0368 26.4429C15.0494 26.4143 15.0609 26.3833 15.0797 26.3287C15.1854 26.0211 15.2202 25.974 15.3253 25.5016C15.3446 25.4151 15.3613 25.3323 15.3756 25.2529C15.396 25.1357 15.411 25.036 15.4235 24.9291C15.4271 24.9097 15.4297 24.8878 15.4321 24.8559C15.4571 24.6234 15.4703 24.4042 15.4713 24.1906C15.4713 24.1091 15.4708 24.0728 15.4693 23.9911C15.4659 23.8739 15.4605 23.768 15.4523 23.6673C15.4487 23.6215 15.4456 23.5876 15.4378 23.5069C15.4289 23.4155 15.4165 23.3205 15.3999 23.211C15.3892 23.1417 15.3798 23.0867 15.3685 23.0273C15.3621 22.9843 15.3536 22.939 15.3403 22.8753C15.3282 22.8139 15.3187 22.7721 15.3042 22.7196C15.293 22.6661 15.2818 22.6195 15.2677 22.5693C15.242 22.4664 15.2134 22.3665 15.1817 22.2696C15.156 22.1879 15.1293 22.1092 15.0993 22.0268C15.0917 22.0044 15.0855 21.9876 15.0694 21.9456C14.115 19.4652 11.7318 17.8111 9.03984 17.8111C8.97666 17.8111 8.91354 17.8121 8.85103 17.8141C8.53451 17.8178 8.24839 17.8453 7.9724 17.892L7.81875 17.8468C7.37638 17.4419 7.09364 17.18 6.81498 16.9146L6.58408 16.6947L6.89213 16.6097C7.29956 16.4973 7.48973 16.4408 7.92373 16.3962C8.2943 16.3432 8.66412 16.3175 9.03984 16.3175C12.1421 16.3175 14.9251 18.0987 16.2245 20.8278C16.2437 20.8694 16.2437 20.8694 16.2633 20.9121C16.2764 20.9409 16.2764 20.9409 16.2887 20.9686C16.3574 21.1198 16.4183 21.2648 16.4837 21.4701L16.4713 21.4066C16.5052 21.4932 16.5355 21.5785 16.5792 21.7072C16.6155 21.8162 16.6467 21.9176 16.6724 22.0111C16.7247 22.1861 16.7705 22.3712 16.8139 22.5785C16.8276 22.6453 16.8399 22.7096 16.8506 22.7705C16.875 22.904 16.8952 23.0346 16.9104 23.1594C16.9249 23.2755 16.9292 23.3115 16.9335 23.3553C16.9644 23.6494 16.977 23.9452 16.9742 24.2409ZM12.8697 27.1856V27.7246H11.3663V27.1856C11.3663 27.1528 11.3658 27.1268 11.3642 27.0603C11.3633 27.0051 11.3557 26.8947 11.3554 26.8903C11.3528 26.8516 11.3528 26.8516 11.3496 26.8077C11.3438 26.7452 11.3438 26.7452 11.3418 26.7277C11.3347 26.6647 11.3347 26.6647 11.3301 26.6323C11.323 26.5772 11.3202 26.5568 11.3133 26.5135C11.3102 26.484 11.3051 26.4521 11.2969 26.4082C11.29 26.3668 11.2875 26.3526 11.2825 26.3291C11.275 26.2886 11.2663 26.2459 11.256 26.1987C11.2464 26.1561 11.2464 26.1561 11.2418 26.1361C11.235 26.1071 11.235 26.1071 11.2274 26.0786C11.2187 26.0459 11.2187 26.0459 11.2105 26.0139C11.2025 25.9824 11.2025 25.9824 11.1943 25.9513C11.1844 25.9131 11.1732 25.8751 11.159 25.8315C11.1431 25.7763 11.1348 25.75 11.1173 25.7012C11.1074 25.6683 11.0969 25.638 11.0797 25.5925C11.0359 25.4683 10.9898 25.3505 10.9379 25.2315C10.9232 25.1961 10.9232 25.1961 10.906 25.1569C10.8546 25.0456 10.834 25.0021 10.8188 24.971C10.8031 24.9381 10.8031 24.9381 10.788 24.9071C10.7679 24.8667 10.7603 24.8518 10.7439 24.8217C10.7298 24.7928 10.7179 24.7703 10.6878 24.715C10.6776 24.6961 10.6776 24.6961 10.6668 24.6762C10.642 24.6298 10.6152 24.5817 10.5823 24.5247C10.5674 24.4961 10.5508 24.4681 10.5153 24.4109C10.4987 24.381 10.4844 24.357 10.4488 24.299C10.2811 24.0285 10.0916 23.7556 9.88005 23.4783C9.12518 22.4924 8.28304 21.6497 6.60024 20.1125C6.48365 20.006 6.48365 20.006 6.36558 19.8983C6.33682 19.8714 6.33682 19.8714 6.30749 19.845C6.24648 19.7896 6.24648 19.7896 6.18545 19.7341C6.08274 19.6407 6.01217 19.5761 5.94205 19.5111C4.55558 18.2435 3.78393 17.4645 3.1622 16.6444C2.72983 16.0779 2.36337 15.5495 2.05048 15.0467C1.76083 14.5824 1.59422 14.279 1.37648 13.8504L1.1925 13.4881L1.58631 13.5943C1.65255 13.6121 1.71973 13.6316 1.78884 13.6529C2.00606 13.7199 2.14068 13.7683 2.60184 13.9404C2.81647 14.0222 3.02082 14.0973 3.22677 14.1694L3.32093 14.2447C3.6178 14.7208 3.95791 15.2139 4.34665 15.7241C4.47566 15.8928 4.60886 16.0569 4.74535 16.215C5.01535 16.5256 5.32199 16.8494 5.66976 17.1931C5.91932 17.4412 6.18869 17.6979 6.53982 18.0245C6.78088 18.2477 7.02282 18.4697 7.38585 18.8008C7.48929 18.8952 7.48929 18.8952 7.59298 18.9895C7.64493 19.0365 7.64493 19.0366 7.6984 19.0847C9.53998 20.7706 10.5206 21.7796 11.3622 22.978C11.4352 23.083 11.4911 23.1648 11.5424 23.2436C11.6359 23.3836 11.7203 23.5172 11.7986 23.6495C11.8367 23.7137 11.8367 23.7137 11.8582 23.7502C11.8884 23.8018 11.8884 23.8018 11.9155 23.8504C11.9538 23.9153 11.9912 23.9835 12.03 24.0586C12.0787 24.1475 12.1253 24.2391 12.173 24.339C12.1946 24.3829 12.1946 24.3829 12.2146 24.4255C12.2423 24.485 12.2423 24.485 12.2536 24.5092C12.312 24.6358 12.3639 24.7564 12.4092 24.8724C12.4229 24.9069 12.4229 24.9069 12.436 24.9411C12.452 24.9834 12.452 24.9834 12.4697 25.0303C12.4796 25.0589 12.4796 25.0589 12.4908 25.0892C12.5026 25.1212 12.5026 25.1212 12.5103 25.1425C12.5307 25.2018 12.5307 25.2018 12.5491 25.2579C12.5641 25.3036 12.5641 25.3036 12.5771 25.3455C12.6078 25.44 12.629 25.5121 12.6556 25.6092C12.6608 25.63 12.6608 25.63 12.6665 25.652C12.6781 25.6963 12.6781 25.6963 12.6832 25.7178C12.6949 25.7598 12.7055 25.8038 12.7167 25.8552C12.733 25.927 12.7383 25.9511 12.7426 25.974C12.7574 26.0404 12.7703 26.1079 12.7812 26.1755C12.7892 26.2205 12.7941 26.2503 12.8065 26.3296C12.8112 26.3669 12.8112 26.3669 12.8165 26.4061C12.8237 26.4601 12.8237 26.4601 12.8229 26.4653C12.8327 26.5342 12.8327 26.5342 12.8358 26.5632C12.8434 26.635 12.8434 26.635 12.8486 26.6837C12.855 26.7712 12.855 26.7712 12.8609 26.861C12.8643 26.9192 12.8665 26.9763 12.8675 27.034C12.8694 27.1271 12.8694 27.1271 12.8697 27.1856ZM14.4945 0L14.5671 0.124652L14.772 0.476727C15.1966 1.20851 15.2607 2.07832 14.9438 2.86807C14.829 3.15671 14.6689 3.41984 14.468 3.65118C14.354 3.78255 14.2282 3.90261 14.092 4.01C14.1493 4.04181 14.2091 4.06952 14.2715 4.09303C14.5809 4.21407 14.9202 4.2218 15.2315 4.1184C15.3691 4.07271 15.4878 4.02588 15.6152 3.95631C15.7805 3.87203 15.918 3.76445 16.0323 3.63091L16.1494 3.49406L17.2111 4.38159C15.9996 5.50076 15.2035 6.26736 14.2247 7.1996L14.1006 7.04417C13.8976 6.78977 13.6668 6.55454 13.4136 6.34366L13.258 6.21412L14.0435 5.46504C13.9477 5.43915 13.8538 5.40847 13.762 5.37293C13.3364 5.20589 12.9577 4.93867 12.6618 4.59796C12.2078 4.64781 11.7467 4.58877 11.3238 4.42459C11.1759 4.3672 11.0334 4.29751 10.8983 4.21672L10.8974 5.2386L10.6981 5.2192C10.5551 5.20529 10.4032 5.19865 10.2416 5.19865C10.0669 5.19865 9.89012 5.20806 9.70811 5.22644L9.5078 5.24667L9.50793 5.04641L9.51005 1.8744V1.4863L9.5335 1.45653L9.70109 1.46403L10.2178 1.48734H10.8997L10.8995 1.70031C10.8976 1.7454 10.8976 1.79103 10.8994 1.83413C10.9057 1.94207 10.9242 2.0479 10.9551 2.15045L11.0236 2.31747C11.0304 2.33764 11.0366 2.35284 11.0478 2.3806C11.0547 2.39359 11.0547 2.39359 11.061 2.40559C11.0751 2.43248 11.0751 2.43248 11.082 2.44476L11.1847 2.62536C11.3366 2.85973 11.5629 3.04057 11.8327 3.14485C11.894 3.16928 11.9569 3.18909 12.0213 3.20435C11.9963 3.03472 11.9877 2.86078 11.9956 2.68513C12.0069 2.38692 12.0718 2.08643 12.1896 1.79032C12.5045 1.00239 13.1505 0.411282 13.9646 0.162511L14.4945 0ZM13.8959 1.50425C13.6366 1.67862 13.434 1.92713 13.3155 2.22315L13.3102 2.2362C13.2461 2.39856 13.2096 2.56667 13.2027 2.73478C13.1953 2.87678 13.2075 3.01513 13.2387 3.14879C13.3567 3.07047 13.4599 2.97963 13.5499 2.8747C13.6647 2.74418 13.7546 2.59486 13.8197 2.43302L13.8234 2.42154C13.9425 2.125 13.9652 1.80705 13.8959 1.50425ZM30.3108 18.3182C30.3083 18.4306 30.3049 18.5253 30.2994 18.6171C30.2931 18.7314 30.2846 18.8494 30.274 18.9713C30.2608 19.1063 30.2522 19.187 30.2412 19.2716C30.2158 19.4752 30.1887 19.6568 30.1567 19.8312C30.1414 19.9104 30.1414 19.9104 30.1336 19.9506C30.1215 20.0113 30.1215 20.0113 30.1087 20.0707C30.07 20.2593 30.03 20.4295 29.9862 20.5879C29.9509 20.7265 29.9102 20.8682 29.8648 21.0114C29.8492 21.0622 29.8339 21.1086 29.8083 21.1844C29.7764 21.2775 29.7671 21.3039 29.7561 21.3322C29.4956 22.0714 29.145 22.7768 28.7223 23.4153C28.7112 23.4365 28.7021 23.4522 28.695 23.4625C28.6834 23.4774 28.3601 23.9645 27.725 24.9238L27.629 24.5143L27.3279 23.2305C27.3094 23.1525 27.3094 23.1525 27.2901 23.074C27.2804 23.0346 27.2804 23.0346 27.2706 22.995C27.2608 22.9553 27.2608 22.9553 27.2518 22.9182C27.2309 22.8384 27.2086 22.7564 27.1767 22.6406C27.0751 22.2687 26.9811 21.9592 26.8812 21.6657L26.8067 21.4154C26.7664 21.3305 26.7234 21.2116 26.682 21.1017C26.6629 21.0536 26.6629 21.0536 26.6445 21.006C26.6262 20.9587 26.6262 20.9587 26.6078 20.9115C26.58 20.8405 26.58 20.8405 26.5517 20.7697C26.5303 20.7164 26.5303 20.7164 26.5087 20.6627C26.4758 20.5813 26.4389 20.4943 26.3942 20.3917C26.348 20.2792 26.2982 20.1663 26.2418 20.0457C26.1297 19.7985 26.0215 19.5724 25.9121 19.359C25.8894 19.3138 25.8721 19.2803 25.8306 19.2007C25.8166 19.174 25.8166 19.174 25.8032 19.1482C25.5388 18.6481 25.255 18.1676 24.9512 17.7072C24.775 17.4341 24.6222 17.2119 24.4694 17.0034L24.4412 16.8485C24.5655 16.4031 24.725 15.9747 24.9213 15.5614L25.0466 15.2976L25.2284 15.5266C25.3442 15.6726 25.4592 15.8226 25.574 15.9771L25.7065 16.1479L25.8522 16.3612L26.0246 16.6143C26.1796 16.8417 26.3251 17.0645 26.4625 17.2854C26.4875 17.3267 26.4875 17.3267 26.5132 17.3685C26.5654 17.4537 26.5654 17.4537 26.5984 17.509C26.6414 17.5787 26.6853 17.6524 26.7341 17.7368C26.7697 17.7962 26.7991 17.8471 26.8578 17.9499C27.1031 18.3864 27.1072 18.3988 27.2858 18.753C27.2999 18.7806 27.2999 18.7806 27.313 18.8072C27.378 18.9361 27.4184 19.0187 27.468 19.1236C27.5151 19.2235 27.5363 19.2692 27.5601 19.3225C27.596 19.3962 27.6273 19.4643 27.6537 19.5268C27.6681 19.5591 27.6681 19.5591 27.6829 19.5921C27.6978 19.6258 27.6978 19.6258 27.7111 19.6568C27.7564 19.7573 27.7983 19.8535 27.8354 19.9423C27.8457 19.9672 27.8457 19.9672 27.8635 20.045L27.8491 19.9754C27.9526 20.2183 28.0508 20.4692 28.1426 20.7244C28.1831 20.8327 28.2221 20.9406 28.2594 21.0475C28.453 20.546 28.5965 20.0273 28.6891 19.4922C28.6975 19.4529 28.7033 19.4192 28.7082 19.3782C28.7161 19.3306 28.7232 19.2821 28.731 19.2242C28.7383 19.1796 28.7443 19.1343 28.7498 19.0823C28.7603 18.998 28.762 18.983 28.764 18.9593C28.7951 18.6672 28.8106 18.375 28.8106 18.0799C28.8106 17.9256 28.807 17.7838 28.7991 17.6477C28.7927 17.5097 28.7817 17.3693 28.7659 17.2204C28.7519 17.0771 28.7322 16.9274 28.7069 16.7663C28.699 16.7208 28.699 16.7208 28.6912 16.6758C28.6835 16.6311 28.6835 16.6311 28.6763 16.5896C28.6643 16.5266 28.6643 16.5266 28.6604 16.5061C28.6526 16.4655 28.6526 16.4655 28.6443 16.4252C28.6245 16.3274 28.6019 16.2259 28.5754 16.1133C28.5355 15.9565 28.5172 15.8877 28.4918 15.8014C28.4673 15.7135 28.4403 15.6257 28.4097 15.5342C28.1126 14.6144 27.6554 13.7529 27.0564 12.9839C26.8188 12.6784 26.5597 12.3893 26.2806 12.1183C25.4808 12.8307 24.8013 13.6782 24.2861 14.6077C24.228 14.7109 24.1706 14.8205 24.1084 14.9461C23.9898 15.1811 23.8786 15.4301 23.773 15.6944C23.6759 15.9422 23.5896 16.1914 23.5132 16.4441C23.4853 16.5376 23.4619 16.6199 23.4415 16.6978C23.4086 16.8245 23.3945 16.8804 23.3796 16.9452C23.354 17.0518 23.3358 17.1338 23.3194 17.2204C23.3077 17.2733 23.2985 17.3209 23.2822 17.4094C23.2755 17.4462 23.2755 17.4462 23.269 17.4811C23.2531 17.5743 23.2393 17.6615 23.2274 17.7455C23.2082 17.8809 23.1926 18.0087 23.18 18.1347C23.1764 18.1697 23.1764 18.1697 23.1731 18.2061C23.1698 18.243 23.1698 18.243 23.1666 18.2803C23.1566 18.3964 23.1511 18.4707 23.1473 18.5527C23.1424 18.6208 23.1392 18.693 23.1376 18.7701C23.136 18.824 23.136 18.824 23.1345 18.874C23.1339 18.9103 23.1339 18.9103 23.1332 18.9461C23.1318 19.0171 23.1313 19.0477 23.1313 19.0865C23.1316 19.1551 23.1316 19.1551 23.1326 19.2186C23.1339 19.2825 23.1339 19.2825 23.1355 19.3474C23.1392 19.5012 23.1475 19.6558 23.1608 19.8153C23.2607 22.278 24.1556 24.6302 25.7206 26.5474C25.863 26.7237 26.0164 26.9008 26.1835 27.0827C26.8071 27.7556 27.5071 28.354 28.2625 28.8599L30.2971 30.2194H16.5675C16.5043 30.2194 16.4421 30.224 16.3835 30.2329L15.8143 30.32L17.4269 28.7824L17.5528 28.7321H25.7146C25.4933 28.5236 25.2794 28.3074 25.0735 28.0841C22.996 25.8361 21.7931 22.9556 21.6603 19.9238C21.6558 19.8684 21.6519 19.811 21.648 19.7444C21.6442 19.678 21.6442 19.678 21.6406 19.612C21.6349 19.4912 21.6327 19.4185 21.6318 19.3492C21.6289 19.2742 21.6279 19.1993 21.6279 19.0922C21.6279 18.9517 21.6291 18.8653 21.6328 18.7775C21.636 18.6651 21.6378 18.6137 21.6414 18.5509C21.6446 18.4887 21.6463 18.4586 21.6486 18.436C21.6502 18.394 21.6502 18.394 21.6514 18.3755C21.6588 18.2654 21.6627 18.2129 21.6685 18.1552C21.674 18.0684 21.6827 17.9786 21.6951 17.8741C21.7058 17.7753 21.7179 17.6832 21.7393 17.5323C21.7515 17.4467 21.7633 17.3725 21.7874 17.2264C21.8048 17.1296 21.8242 17.0297 21.8462 16.9237C21.8645 16.8308 21.8853 16.7346 21.9121 16.6182C21.9419 16.4962 21.9514 16.459 21.9622 16.423C21.9757 16.3647 21.9879 16.3196 22.0161 16.2202C22.0292 16.1689 22.0426 16.1224 22.0673 16.0396C22.0874 15.9754 22.0874 15.9754 22.0921 15.9598C22.1071 15.9057 22.1245 15.8501 22.1442 15.7929C22.1586 15.7479 22.1586 15.7479 22.1662 15.7251C22.2665 15.4229 22.3782 15.1287 22.5014 14.844C22.5794 14.6622 22.6658 14.4772 22.7608 14.287C23.4831 12.8409 24.5462 11.548 25.8207 10.56L26.3184 10.1712L26.4312 10.2653L26.7871 10.5621C28.2046 11.7495 29.2513 13.2907 29.8239 15.021C29.8639 15.146 29.8985 15.2571 29.931 15.3665C29.9876 15.5674 30.0366 15.7582 30.0802 15.9494C30.0888 15.9916 30.0888 15.9916 30.0977 16.0341C30.1202 16.1412 30.1202 16.1412 30.1341 16.2085C30.1424 16.2525 30.1424 16.2525 30.1503 16.2961C30.1601 16.3505 30.1601 16.3505 30.1696 16.4045C30.1753 16.4369 30.1753 16.4369 30.1814 16.471C30.1947 16.5513 30.2073 16.6347 30.2214 16.7349C30.2421 16.8897 30.2484 16.9394 30.2554 17.0033C30.2649 17.0953 30.2649 17.0953 30.269 17.1351C30.2756 17.2019 30.2756 17.2019 30.2818 17.2727C30.2848 17.3153 30.2848 17.3153 30.2879 17.3586C30.2958 17.4691 30.2975 17.4971 30.2997 17.5458C30.3034 17.6012 30.3054 17.649 30.3085 17.7534L30.3129 17.8591C30.3181 18.2181 30.3269 17.931 30.3108 18.3182ZM10.1095 6.17155C11.7293 6.17155 13.1715 7.13406 13.7958 8.57756C16.9408 9.1896 19.9042 10.5869 22.3768 12.622L22.4999 12.7234L22.4146 12.8579C22.2119 13.1774 22.0265 13.5056 21.8586 13.8421L21.7552 14.0491L21.5781 13.8995C21.45 13.7914 21.3152 13.6816 21.1606 13.559L21.0593 13.4819L20.8651 13.3342C18.8083 11.7704 16.4219 10.672 13.8912 10.1215C13.6407 10.0671 13.3953 10.0188 13.1523 9.97618L13.002 9.94985C12.9171 9.93131 12.8291 9.9177 12.7372 9.9045L12.5814 9.88212V9.73699C12.5511 9.55508 12.5031 9.38219 12.437 9.21929C12.3541 9.01092 12.2403 8.81339 12.0994 8.63179C11.6292 8.02304 10.8996 7.6583 10.1095 7.6583C8.87471 7.6583 7.8277 8.54885 7.63739 9.73615L7.61687 9.87784L7.48171 9.89676C7.08732 9.95197 6.7024 10.02 6.32758 10.1013C5.56194 10.2639 4.8082 10.4768 4.00951 10.749C3.92146 10.7902 3.77214 10.8454 3.6164 10.9059C3.3775 10.998 3.13826 11.0965 2.88798 11.2057C2.79344 11.2437 2.70995 11.2795 2.62567 11.3182C2.7698 11.3643 2.91936 11.4157 3.08108 11.4741C3.20151 11.5164 3.3087 11.5563 3.49517 11.6273C3.60557 11.6686 3.60557 11.6686 3.7152 11.7094C4.75946 12.0963 5.42559 12.2469 6.43194 12.2469C7.44178 12.2469 8.28536 12.0612 8.90499 11.7091C8.64045 11.3751 8.47684 10.9696 8.42479 10.5218C8.4179 10.4848 8.4179 10.4848 8.41538 10.4569C8.40737 10.3826 8.40254 10.3048 8.40005 10.2142C8.39743 10.1402 8.39629 10.0633 8.39931 10.027C8.4028 9.9838 8.4028 9.9838 8.40844 9.9322C8.41375 9.88509 8.41418 9.88132 8.42547 9.82414C8.55573 9.06139 9.22735 8.49948 10.0122 8.49948C10.832 8.49948 11.5196 9.10612 11.6109 9.9116C11.6162 9.95836 11.6184 10.0015 11.6196 10.0577C11.6237 10.118 11.6253 10.1821 11.6253 10.2632C11.6253 10.9107 11.2956 11.5334 10.7624 12.1057C10.7241 12.1483 10.6854 12.1889 10.6437 12.2306C10.579 12.2958 10.5387 12.3354 10.497 12.3737L10.3824 12.4789L10.2961 12.5532C10.2719 12.5742 10.2517 12.5906 10.2104 12.6233C10.1798 12.6474 10.1798 12.6474 10.1664 12.6579C10.1512 12.6698 10.1461 12.6737 10.1369 12.6807L10.1181 12.6948C10.0601 12.7382 10.0601 12.7382 10.0297 12.7595C9.97126 12.8021 9.90803 12.8442 9.8583 12.8725C9.84363 12.8842 9.83697 12.8895 9.81615 12.8975C9.71389 12.9662 9.61586 13.0225 9.52183 13.0697C9.5012 13.0807 9.49432 13.0844 9.48358 13.0899L9.46236 13.1007C9.36782 13.1488 9.341 13.1618 9.31249 13.1734C9.20693 13.223 9.09797 13.2687 9.02798 13.2885C8.99742 13.3098 8.97032 13.3199 8.9615 13.3202C8.89987 13.3443 8.84571 13.3629 8.74406 13.396C8.56936 13.4557 8.38724 13.5065 8.19944 13.5483C7.66379 13.673 7.07077 13.7352 6.43194 13.7352C5.37214 13.7352 4.52855 13.5718 3.57301 13.2421C3.39469 13.1798 3.24687 13.1252 2.9629 13.0184C2.76687 12.9447 2.67314 12.9097 2.63849 12.8858C2.56266 12.8704 2.56233 12.87 2.56233 12.87C2.17021 12.7139 1.80302 12.5567 1.44169 12.3914C1.37661 12.3631 1.31283 12.3337 1.22625 12.2926C1.03228 12.2014 0.864303 12.1209 0.71231 12.0462C0.447916 11.9152 0.219008 11.7955 0.0102301 11.6702L0.030315 11.6846L0.0059969 11.6681L0 11.4175L0.250902 11.1598C0.309264 11.1001 0.351568 11.0573 0.406215 11.0034C0.56479 10.8499 0.682082 10.7437 0.780906 10.6721C0.87004 10.6071 0.949969 10.552 1.03362 10.4975C1.15103 10.4206 1.27792 10.3435 1.40615 10.2706C1.4289 10.2563 1.4289 10.2563 1.44971 10.2445C1.56528 10.1788 1.65236 10.132 1.75475 10.0802C1.92795 9.99094 2.09427 9.91447 2.23583 9.85976C2.26652 9.84449 2.26652 9.84449 2.28833 9.8359C3.62204 9.25302 5.00814 8.82566 6.43205 8.55748C7.0605 7.12482 8.49764 6.17155 10.1095 6.17155ZM10.0122 9.80121C9.8841 9.80121 9.77139 9.88266 9.73435 10.0001L9.72694 10.0377L9.72059 10.1353C9.72059 10.1787 9.72165 10.2204 9.72482 10.2612C9.72906 10.304 9.73329 10.3457 9.73805 10.3854C9.74758 10.4465 9.75922 10.5039 9.77562 10.5587C9.82325 10.7201 9.89944 10.8542 10.0058 10.9644C10.1767 10.7342 10.2788 10.517 10.3037 10.3322C10.3069 10.3092 10.3079 10.2857 10.3079 10.2632C10.3079 10.2142 10.3069 10.1661 10.3048 10.1223L10.3037 10.0889C10.3037 10.0763 10.3016 10.0654 10.3005 10.0549C10.2852 9.91033 10.1608 9.80121 10.0122 9.80121Z"
        fill="#4AD9BD" />
</svg>
    