<svg width="8" height="8" viewBox="0 0 8 8" fill="none" xmlns="http://www.w3.org/2000/svg">
    <path fill-rule="evenodd" clip-rule="evenodd"
        d="M4.57024 3.45161H7.44355C7.75087 3.45161 8 3.70074 8 4.00806C8 4.31538 7.75087 4.56452 7.44355 4.56452H4.57024V7.42144C4.57024 7.74097 4.31121 8 3.99168 8C3.67214 8 3.41311 7.74097 3.41311 7.42144V4.56452H0.556452C0.249132 4.56452 0 4.31538 0 4.00806C0 3.70074 0.249132 3.45161 0.556452 3.45161H3.41311V0.578564C3.41311 0.259032 3.67214 0 3.99168 0C4.31121 0 4.57024 0.259032 4.57024 0.578564V3.45161Z"
        fill="#1E1E3C" />
</svg>
    