<svg width="20" height="20" viewBox="0 0 20 20" fill="none" xmlns="http://www.w3.org/2000/svg">
    <path fill-rule="evenodd" clip-rule="evenodd"
        d="M13.6918 19.1667C14.9264 19.1667 15.72 18.4102 15.7761 17.1576L16.3213 5.437H17.2031C17.604 5.437 17.9166 5.11978 17.9166 4.7131C17.9166 4.31455 17.604 3.99733 17.2031 3.99733H13.6437V2.89115C13.6437 1.63856 12.7939 0.833328 11.423 0.833328H8.56095C7.19808 0.833328 6.34829 1.63856 6.34829 2.89115V3.99733H2.79682C2.40399 3.99733 2.08331 4.31455 2.08331 4.7131C2.08331 5.11978 2.40399 5.437 2.79682 5.437H3.68669L4.22382 17.1576C4.28795 18.4184 5.07361 19.1667 6.32424 19.1667H13.6918ZM12.1445 3.99733H7.85547V2.96435C7.86349 2.517 8.18416 2.19979 8.65716 2.19979H11.3348C11.8078 2.19979 12.1365 2.517 12.1365 2.96435L12.1445 3.99733ZM13.5154 17.7107H6.48461C6.04368 17.7107 5.72301 17.3773 5.69896 16.8974L5.16182 5.437H14.8222L14.3091 16.8974C14.285 17.3854 13.9724 17.7107 13.5154 17.7107ZM12.369 16.3768C12.6656 16.3768 12.8821 16.1247 12.8981 15.783L13.1386 7.44602C13.1466 7.1044 12.9142 6.84412 12.6175 6.84412C12.3289 6.84412 12.0884 7.11254 12.0804 7.43788L11.8399 15.7668C11.8319 16.1084 12.0563 16.3768 12.369 16.3768ZM7.63901 16.3768C7.94365 16.3768 8.17614 16.1084 8.16812 15.7668L7.92762 7.43788C7.91158 7.11254 7.67108 6.84412 7.39049 6.84412C7.08585 6.84412 6.86137 7.1044 6.86939 7.44602L7.1099 15.783C7.11791 16.1247 7.34239 16.3768 7.63901 16.3768ZM10.004 16.3768C10.2926 16.3768 10.5411 16.1084 10.5411 15.783V7.43788C10.5411 7.11254 10.3006 6.84412 10.004 6.84412C9.70738 6.84412 9.46688 7.11254 9.46688 7.43788V15.783C9.46688 16.1084 9.70738 16.3768 10.004 16.3768Z"
        fill="#C6CDD7" />
</svg>
    